<svg width="142" height="25" viewBox="0 0 142 25" fill="none" xmlns="http://www.w3.org/2000/svg">
<path d="M0.0227273 0.727272H6.09091L12.5 16.3636H12.7727L19.1818 0.727272H25.25V24H20.4773V8.85227H20.2841L14.2614 23.8864H11.0114L4.98864 8.79545H4.79545V24H0.0227273V0.727272ZM29.304 24V0.727272H38.6222C40.3343 0.727272 41.7623 0.98106 42.9062 1.48864C44.0502 1.99621 44.91 2.70076 45.4858 3.60227C46.0616 4.49621 46.3494 5.52652 46.3494 6.69318C46.3494 7.60227 46.1676 8.40152 45.804 9.09091C45.4403 9.77273 44.9403 10.3333 44.304 10.7727C43.6752 11.2045 42.9555 11.5114 42.1449 11.6932V11.9205C43.0313 11.9583 43.8608 12.2083 44.6335 12.6705C45.4138 13.1326 46.0464 13.7803 46.5312 14.6136C47.0161 15.4394 47.2585 16.4242 47.2585 17.5682C47.2585 18.803 46.9517 19.9053 46.3381 20.875C45.732 21.8371 44.8343 22.5985 43.6449 23.1591C42.4555 23.7197 40.9896 24 39.2472 24H29.304ZM34.2244 19.9773H38.2358C39.607 19.9773 40.607 19.7159 41.2358 19.1932C41.8646 18.6629 42.179 17.9583 42.179 17.0795C42.179 16.4356 42.0237 15.8674 41.7131 15.375C41.4025 14.8826 40.9593 14.4962 40.3835 14.2159C39.8153 13.9356 39.1373 13.7955 38.3494 13.7955H34.2244V19.9773ZM34.2244 10.4659H37.8722C38.5464 10.4659 39.1449 10.3485 39.6676 10.1136C40.1979 9.87121 40.6146 9.5303 40.9176 9.09091C41.2282 8.65152 41.3835 8.125 41.3835 7.51136C41.3835 6.67045 41.0843 5.99242 40.4858 5.47727C39.8949 4.96212 39.054 4.70454 37.9631 4.70454H34.2244V10.4659ZM57.8665 24V0.727272H67.1847C68.8968 0.727272 70.3248 0.98106 71.4688 1.48864C72.6127 1.99621 73.4725 2.70076 74.0483 3.60227C74.6241 4.49621 74.9119 5.52652 74.9119 6.69318C74.9119 7.60227 74.7301 8.40152 74.3665 9.09091C74.0028 9.77273 73.5028 10.3333 72.8665 10.7727C72.2377 11.2045 71.518 11.5114 70.7074 11.6932V11.9205C71.5938 11.9583 72.4233 12.2083 73.196 12.6705C73.9763 13.1326 74.6089 13.7803 75.0938 14.6136C75.5786 15.4394 75.821 16.4242 75.821 17.5682C75.821 18.803 75.5142 19.9053 74.9006 20.875C74.2945 21.8371 73.3968 22.5985 72.2074 23.1591C71.018 23.7197 69.5521 24 67.8097 24H57.8665ZM62.7869 19.9773H66.7983C68.1695 19.9773 69.1695 19.7159 69.7983 19.1932C70.4271 18.6629 70.7415 17.9583 70.7415 17.0795C70.7415 16.4356 70.5862 15.8674 70.2756 15.375C69.965 14.8826 69.5218 14.4962 68.946 14.2159C68.3778 13.9356 67.6998 13.7955 66.9119 13.7955H62.7869V19.9773ZM62.7869 10.4659H66.4347C67.1089 10.4659 67.7074 10.3485 68.2301 10.1136C68.7604 9.87121 69.1771 9.5303 69.4801 9.09091C69.7907 8.65152 69.946 8.125 69.946 7.51136C69.946 6.67045 69.6468 5.99242 69.0483 5.47727C68.4574 4.96212 67.6165 4.70454 66.5256 4.70454H62.7869V10.4659ZM79.0227 24V0.727272H83.9432V19.9432H93.9205V24H79.0227ZM117.659 12.3636C117.659 14.9015 117.178 17.0606 116.216 18.8409C115.261 20.6212 113.958 21.9811 112.307 22.9205C110.663 23.8523 108.814 24.3182 106.761 24.3182C104.693 24.3182 102.837 23.8485 101.193 22.9091C99.5492 21.9697 98.25 20.6098 97.2955 18.8295C96.3409 17.0492 95.8636 14.8939 95.8636 12.3636C95.8636 9.82576 96.3409 7.66667 97.2955 5.88636C98.25 4.10606 99.5492 2.75 101.193 1.81818C102.837 0.878787 104.693 0.40909 106.761 0.40909C108.814 0.40909 110.663 0.878787 112.307 1.81818C113.958 2.75 115.261 4.10606 116.216 5.88636C117.178 7.66667 117.659 9.82576 117.659 12.3636ZM112.67 12.3636C112.67 10.7197 112.424 9.33333 111.932 8.20455C111.447 7.07576 110.761 6.2197 109.875 5.63636C108.989 5.05303 107.951 4.76136 106.761 4.76136C105.572 4.76136 104.534 5.05303 103.648 5.63636C102.761 6.2197 102.072 7.07576 101.58 8.20455C101.095 9.33333 100.852 10.7197 100.852 12.3636C100.852 14.0076 101.095 15.3939 101.58 16.5227C102.072 17.6515 102.761 18.5076 103.648 19.0909C104.534 19.6742 105.572 19.9659 106.761 19.9659C107.951 19.9659 108.989 19.6742 109.875 19.0909C110.761 18.5076 111.447 17.6515 111.932 16.5227C112.424 15.3939 112.67 14.0076 112.67 12.3636ZM136.736 8.25C136.577 7.69697 136.353 7.20833 136.065 6.78409C135.777 6.35227 135.425 5.98864 135.009 5.69318C134.599 5.39015 134.13 5.15909 133.599 5C133.077 4.84091 132.497 4.76136 131.861 4.76136C130.671 4.76136 129.626 5.05682 128.724 5.64773C127.83 6.23864 127.134 7.09848 126.634 8.22727C126.134 9.34848 125.884 10.7197 125.884 12.3409C125.884 13.9621 126.13 15.3409 126.622 16.4773C127.115 17.6136 127.812 18.4811 128.713 19.0795C129.615 19.6705 130.679 19.9659 131.906 19.9659C133.02 19.9659 133.971 19.7689 134.759 19.375C135.554 18.9735 136.16 18.4091 136.577 17.6818C137.001 16.9545 137.213 16.0947 137.213 15.1023L138.213 15.25H132.213V11.5455H141.952V14.4773C141.952 16.5227 141.52 18.2803 140.656 19.75C139.793 21.2121 138.603 22.3409 137.088 23.1364C135.573 23.9242 133.838 24.3182 131.884 24.3182C129.702 24.3182 127.785 23.8371 126.134 22.875C124.482 21.9053 123.194 20.5303 122.27 18.75C121.353 16.9621 120.895 14.8409 120.895 12.3864C120.895 10.5 121.168 8.81818 121.713 7.34091C122.266 5.85606 123.039 4.59848 124.031 3.56818C125.024 2.53788 126.179 1.75379 127.497 1.21591C128.815 0.678029 130.243 0.40909 131.781 0.40909C133.099 0.40909 134.327 0.602272 135.463 0.988636C136.599 1.36742 137.607 1.9053 138.486 2.60227C139.372 3.29924 140.096 4.12879 140.656 5.09091C141.217 6.04545 141.577 7.09848 141.736 8.25H136.736Z" fill="#EF4723"/>
</svg>
