<svg width="171" height="25" viewBox="0 0 171 25" fill="none" xmlns="http://www.w3.org/2000/svg">
<path d="M16.4545 8.25C16.2955 7.69697 16.072 7.20833 15.7841 6.78409C15.4962 6.35227 15.1439 5.98864 14.7273 5.69318C14.3182 5.39015 13.8485 5.15909 13.3182 5C12.7955 4.84091 12.2159 4.76136 11.5795 4.76136C10.3902 4.76136 9.3447 5.05682 8.44318 5.64773C7.54924 6.23864 6.85227 7.09848 6.35227 8.22727C5.85227 9.34848 5.60227 10.7197 5.60227 12.3409C5.60227 13.9621 5.84849 15.3409 6.34091 16.4773C6.83333 17.6136 7.5303 18.4811 8.43182 19.0795C9.33333 19.6705 10.3977 19.9659 11.625 19.9659C12.7386 19.9659 13.6894 19.7689 14.4773 19.375C15.2727 18.9735 15.8788 18.4091 16.2955 17.6818C16.7197 16.9545 16.9318 16.0947 16.9318 15.1023L17.9318 15.25H11.9318V11.5455H21.6705V14.4773C21.6705 16.5227 21.2386 18.2803 20.375 19.75C19.5114 21.2121 18.322 22.3409 16.8068 23.1364C15.2917 23.9242 13.5568 24.3182 11.6023 24.3182C9.42045 24.3182 7.50379 23.8371 5.85227 22.875C4.20076 21.9053 2.91288 20.5303 1.98864 18.75C1.07197 16.9621 0.613636 14.8409 0.613636 12.3864C0.613636 10.5 0.886364 8.81818 1.43182 7.34091C1.98485 5.85606 2.75758 4.59848 3.75 3.56818C4.74242 2.53788 5.89773 1.75379 7.21591 1.21591C8.53409 0.678029 9.96212 0.40909 11.5 0.40909C12.8182 0.40909 14.0455 0.602272 15.1818 0.988636C16.3182 1.36742 17.3258 1.9053 18.2045 2.60227C19.0909 3.29924 19.8144 4.12879 20.375 5.09091C20.9356 6.04545 21.2955 7.09848 21.4545 8.25H16.4545ZM30.2528 24.3295C29.1392 24.3295 28.1468 24.1364 27.2756 23.75C26.4044 23.3561 25.715 22.7765 25.2074 22.0114C24.7074 21.2386 24.4574 20.2765 24.4574 19.125C24.4574 18.1553 24.6354 17.3409 24.9915 16.6818C25.3475 16.0227 25.8324 15.4924 26.446 15.0909C27.0597 14.6894 27.7566 14.3864 28.5369 14.1818C29.3248 13.9773 30.1506 13.8333 31.0142 13.75C32.0294 13.6439 32.8475 13.5455 33.4688 13.4545C34.09 13.3561 34.5407 13.2121 34.821 13.0227C35.1013 12.8333 35.2415 12.553 35.2415 12.1818V12.1136C35.2415 11.3939 35.0142 10.8371 34.5597 10.4432C34.1127 10.0492 33.4763 9.85227 32.6506 9.85227C31.7794 9.85227 31.0862 10.0455 30.571 10.4318C30.0559 10.8106 29.715 11.2879 29.5483 11.8636L25.071 11.5C25.2983 10.4394 25.7453 9.52273 26.4119 8.75C27.0786 7.9697 27.9384 7.37121 28.9915 6.95454C30.0521 6.5303 31.2794 6.31818 32.6733 6.31818C33.643 6.31818 34.571 6.43182 35.4574 6.65909C36.3513 6.88636 37.143 7.23864 37.8324 7.71591C38.5294 8.19318 39.0786 8.80682 39.4801 9.55682C39.8816 10.2992 40.0824 11.1894 40.0824 12.2273V24H35.4915V21.5795H35.3551C35.0748 22.125 34.6998 22.6061 34.2301 23.0227C33.7604 23.4318 33.196 23.7538 32.5369 23.9886C31.8778 24.2159 31.1165 24.3295 30.2528 24.3295ZM31.6392 20.9886C32.3513 20.9886 32.9801 20.8485 33.5256 20.5682C34.071 20.2803 34.4991 19.8939 34.8097 19.4091C35.1203 18.9242 35.2756 18.375 35.2756 17.7614V15.9091C35.1241 16.0076 34.9157 16.0985 34.6506 16.1818C34.393 16.2576 34.1013 16.3295 33.7756 16.3977C33.4498 16.4583 33.1241 16.5152 32.7983 16.5682C32.4725 16.6136 32.1771 16.6553 31.9119 16.6932C31.3438 16.7765 30.8475 16.9091 30.4233 17.0909C29.9991 17.2727 29.6695 17.5189 29.4347 17.8295C29.1998 18.1326 29.0824 18.5114 29.0824 18.9659C29.0824 19.625 29.321 20.1288 29.7983 20.4773C30.2831 20.8182 30.8968 20.9886 31.6392 20.9886ZM43.8381 24V6.54545H48.4517V9.625H48.6562C49.0199 8.60227 49.6259 7.79545 50.4744 7.20454C51.3229 6.61364 52.3381 6.31818 53.5199 6.31818C54.7169 6.31818 55.7358 6.61742 56.5767 7.21591C57.4176 7.80682 57.9782 8.60985 58.2585 9.625H58.4403C58.7964 8.625 59.4403 7.82576 60.3722 7.22727C61.3116 6.62121 62.4214 6.31818 63.7017 6.31818C65.3305 6.31818 66.6525 6.83712 67.6676 7.875C68.6903 8.9053 69.2017 10.3674 69.2017 12.2614V24H64.3722V13.2159C64.3722 12.2462 64.1146 11.5189 63.5994 11.0341C63.0843 10.5492 62.4403 10.3068 61.6676 10.3068C60.7888 10.3068 60.1032 10.5871 59.6108 11.1477C59.1184 11.7008 58.8722 12.4318 58.8722 13.3409V24H54.179V13.1136C54.179 12.2576 53.9328 11.5758 53.4403 11.0682C52.9555 10.5606 52.3153 10.3068 51.5199 10.3068C50.982 10.3068 50.4972 10.4432 50.0653 10.7159C49.6411 10.9811 49.304 11.3561 49.054 11.8409C48.804 12.3182 48.679 12.8788 48.679 13.5227V24H43.8381ZM80.9801 24.3409C79.1847 24.3409 77.6392 23.9773 76.3438 23.25C75.0559 22.5152 74.0634 21.4773 73.3665 20.1364C72.6695 18.7879 72.321 17.1932 72.321 15.3523C72.321 13.5568 72.6695 11.9811 73.3665 10.625C74.0634 9.26894 75.0445 8.21212 76.3097 7.45454C77.5824 6.69697 79.0748 6.31818 80.7869 6.31818C81.9384 6.31818 83.0104 6.50379 84.0028 6.875C85.0028 7.23864 85.8741 7.78788 86.6165 8.52273C87.3665 9.25758 87.9498 10.1818 88.3665 11.2955C88.7831 12.4015 88.9915 13.697 88.9915 15.1818V16.5114H74.2528V13.5114H84.4347C84.4347 12.8144 84.2831 12.197 83.9801 11.6591C83.6771 11.1212 83.2566 10.7008 82.7188 10.3977C82.1884 10.0871 81.571 9.93182 80.8665 9.93182C80.1316 9.93182 79.4801 10.1023 78.9119 10.4432C78.3513 10.7765 77.9119 11.2273 77.5938 11.7955C77.2756 12.3561 77.1127 12.9811 77.1051 13.6705V16.5227C77.1051 17.3864 77.2642 18.1326 77.5824 18.7614C77.9081 19.3902 78.3665 19.875 78.9574 20.2159C79.5483 20.5568 80.2491 20.7273 81.0597 20.7273C81.5975 20.7273 82.09 20.6515 82.5369 20.5C82.9839 20.3485 83.3665 20.1212 83.6847 19.8182C84.0028 19.5152 84.2453 19.1439 84.4119 18.7045L88.8892 19C88.6619 20.0758 88.196 21.0152 87.4915 21.8182C86.7945 22.6136 85.893 23.2348 84.7869 23.6818C83.6884 24.1212 82.4195 24.3409 80.9801 24.3409ZM106.673 11.5227L102.241 11.7955C102.166 11.4167 102.003 11.0758 101.753 10.7727C101.503 10.4621 101.173 10.2159 100.764 10.0341C100.363 9.8447 99.8816 9.75 99.321 9.75C98.571 9.75 97.9384 9.90909 97.4233 10.2273C96.9081 10.5379 96.6506 10.9545 96.6506 11.4773C96.6506 11.8939 96.8172 12.2462 97.1506 12.5341C97.4839 12.822 98.0559 13.053 98.8665 13.2273L102.026 13.8636C103.723 14.2121 104.988 14.7727 105.821 15.5455C106.654 16.3182 107.071 17.3333 107.071 18.5909C107.071 19.7348 106.734 20.7386 106.06 21.6023C105.393 22.4659 104.476 23.1402 103.31 23.625C102.151 24.1023 100.813 24.3409 99.2983 24.3409C96.9877 24.3409 95.1468 23.8598 93.7756 22.8977C92.4119 21.928 91.6127 20.6098 91.3778 18.9432L96.1392 18.6932C96.2831 19.3977 96.6316 19.9356 97.1847 20.3068C97.7377 20.6705 98.446 20.8523 99.3097 20.8523C100.158 20.8523 100.84 20.6894 101.355 20.3636C101.878 20.0303 102.143 19.6023 102.151 19.0795C102.143 18.6402 101.957 18.2803 101.594 18C101.23 17.7121 100.67 17.4924 99.9119 17.3409L96.8892 16.7386C95.1847 16.3977 93.9157 15.8068 93.0824 14.9659C92.2566 14.125 91.8438 13.053 91.8438 11.75C91.8438 10.6288 92.1468 9.66288 92.7528 8.85227C93.3665 8.04167 94.2263 7.41667 95.3324 6.97727C96.446 6.53788 97.7491 6.31818 99.2415 6.31818C101.446 6.31818 103.181 6.78409 104.446 7.71591C105.719 8.64773 106.461 9.91667 106.673 11.5227ZM106.949 4.78409V0.727272H126.062V4.78409H118.938V24H114.074V4.78409H106.949ZM131.722 24.3295C130.608 24.3295 129.616 24.1364 128.744 23.75C127.873 23.3561 127.184 22.7765 126.676 22.0114C126.176 21.2386 125.926 20.2765 125.926 19.125C125.926 18.1553 126.104 17.3409 126.46 16.6818C126.816 16.0227 127.301 15.4924 127.915 15.0909C128.528 14.6894 129.225 14.3864 130.006 14.1818C130.794 13.9773 131.619 13.8333 132.483 13.75C133.498 13.6439 134.316 13.5455 134.938 13.4545C135.559 13.3561 136.009 13.2121 136.29 13.0227C136.57 12.8333 136.71 12.553 136.71 12.1818V12.1136C136.71 11.3939 136.483 10.8371 136.028 10.4432C135.581 10.0492 134.945 9.85227 134.119 9.85227C133.248 9.85227 132.555 10.0455 132.04 10.4318C131.525 10.8106 131.184 11.2879 131.017 11.8636L126.54 11.5C126.767 10.4394 127.214 9.52273 127.881 8.75C128.547 7.9697 129.407 7.37121 130.46 6.95454C131.521 6.5303 132.748 6.31818 134.142 6.31818C135.112 6.31818 136.04 6.43182 136.926 6.65909C137.82 6.88636 138.612 7.23864 139.301 7.71591C139.998 8.19318 140.547 8.80682 140.949 9.55682C141.35 10.2992 141.551 11.1894 141.551 12.2273V24H136.96V21.5795H136.824C136.544 22.125 136.169 22.6061 135.699 23.0227C135.229 23.4318 134.665 23.7538 134.006 23.9886C133.347 24.2159 132.585 24.3295 131.722 24.3295ZM133.108 20.9886C133.82 20.9886 134.449 20.8485 134.994 20.5682C135.54 20.2803 135.968 19.8939 136.278 19.4091C136.589 18.9242 136.744 18.375 136.744 17.7614V15.9091C136.593 16.0076 136.384 16.0985 136.119 16.1818C135.862 16.2576 135.57 16.3295 135.244 16.3977C134.919 16.4583 134.593 16.5152 134.267 16.5682C133.941 16.6136 133.646 16.6553 133.381 16.6932C132.813 16.7765 132.316 16.9091 131.892 17.0909C131.468 17.2727 131.138 17.5189 130.903 17.8295C130.669 18.1326 130.551 18.5114 130.551 18.9659C130.551 19.625 130.79 20.1288 131.267 20.4773C131.752 20.8182 132.366 20.9886 133.108 20.9886ZM150.148 0.727272V24H145.307V0.727272H150.148ZM158.412 18.9773L158.423 13.1705H159.128L164.719 6.54545H170.276L162.764 15.3182H161.616L158.412 18.9773ZM154.026 24V0.727272H158.866V24H154.026ZM164.935 24L159.798 16.3977L163.026 12.9773L170.605 24H164.935Z" fill="#EF4723"/>
</svg>
