<svg width="159" height="25" viewBox="0 0 159 25" fill="none" xmlns="http://www.w3.org/2000/svg">
<path d="M8.27273 24H0.0227273V0.727272H8.34091C10.6818 0.727272 12.697 1.19318 14.3864 2.125C16.0758 3.04924 17.375 4.37879 18.2841 6.11364C19.2008 7.84848 19.6591 9.92424 19.6591 12.3409C19.6591 14.7652 19.2008 16.8485 18.2841 18.5909C17.375 20.3333 16.0682 21.6705 14.3636 22.6023C12.6667 23.5341 10.6364 24 8.27273 24ZM4.94318 19.7841H8.06818C9.52273 19.7841 10.7462 19.5265 11.7386 19.0114C12.7386 18.4886 13.4886 17.6818 13.9886 16.5909C14.4962 15.4924 14.75 14.0758 14.75 12.3409C14.75 10.6212 14.4962 9.21591 13.9886 8.125C13.4886 7.03409 12.7424 6.23106 11.75 5.71591C10.7576 5.20076 9.53409 4.94318 8.07955 4.94318H4.94318V19.7841ZM23.304 24V0.727272H38.9858V4.78409H28.2244V10.3295H38.179V14.3864H28.2244V19.9432H39.0312V24H23.304ZM47.1023 0.727272L52.7273 18.4091H52.9432L58.5795 0.727272H64.0341L56.0114 24H49.6705L41.6364 0.727272H47.1023ZM74.2415 24V0.727272H83.5597C85.2718 0.727272 86.6998 0.98106 87.8438 1.48864C88.9877 1.99621 89.8475 2.70076 90.4233 3.60227C90.9991 4.49621 91.2869 5.52652 91.2869 6.69318C91.2869 7.60227 91.1051 8.40152 90.7415 9.09091C90.3778 9.77273 89.8778 10.3333 89.2415 10.7727C88.6127 11.2045 87.893 11.5114 87.0824 11.6932V11.9205C87.9688 11.9583 88.7983 12.2083 89.571 12.6705C90.3513 13.1326 90.9839 13.7803 91.4688 14.6136C91.9536 15.4394 92.196 16.4242 92.196 17.5682C92.196 18.803 91.8892 19.9053 91.2756 20.875C90.6695 21.8371 89.7718 22.5985 88.5824 23.1591C87.393 23.7197 85.9271 24 84.1847 24H74.2415ZM79.1619 19.9773H83.1733C84.5445 19.9773 85.5445 19.7159 86.1733 19.1932C86.8021 18.6629 87.1165 17.9583 87.1165 17.0795C87.1165 16.4356 86.9612 15.8674 86.6506 15.375C86.34 14.8826 85.8968 14.4962 85.321 14.2159C84.7528 13.9356 84.0748 13.7955 83.2869 13.7955H79.1619V19.9773ZM79.1619 10.4659H82.8097C83.4839 10.4659 84.0824 10.3485 84.6051 10.1136C85.1354 9.87121 85.5521 9.5303 85.8551 9.09091C86.1657 8.65152 86.321 8.125 86.321 7.51136C86.321 6.67045 86.0218 5.99242 85.4233 5.47727C84.8324 4.96212 83.9915 4.70454 82.9006 4.70454H79.1619V10.4659ZM95.3977 24V0.727272H100.318V19.9432H110.295V24H95.3977ZM134.034 12.3636C134.034 14.9015 133.553 17.0606 132.591 18.8409C131.636 20.6212 130.333 21.9811 128.682 22.9205C127.038 23.8523 125.189 24.3182 123.136 24.3182C121.068 24.3182 119.212 23.8485 117.568 22.9091C115.924 21.9697 114.625 20.6098 113.67 18.8295C112.716 17.0492 112.239 14.8939 112.239 12.3636C112.239 9.82576 112.716 7.66667 113.67 5.88636C114.625 4.10606 115.924 2.75 117.568 1.81818C119.212 0.878787 121.068 0.40909 123.136 0.40909C125.189 0.40909 127.038 0.878787 128.682 1.81818C130.333 2.75 131.636 4.10606 132.591 5.88636C133.553 7.66667 134.034 9.82576 134.034 12.3636ZM129.045 12.3636C129.045 10.7197 128.799 9.33333 128.307 8.20455C127.822 7.07576 127.136 6.2197 126.25 5.63636C125.364 5.05303 124.326 4.76136 123.136 4.76136C121.947 4.76136 120.909 5.05303 120.023 5.63636C119.136 6.2197 118.447 7.07576 117.955 8.20455C117.47 9.33333 117.227 10.7197 117.227 12.3636C117.227 14.0076 117.47 15.3939 117.955 16.5227C118.447 17.6515 119.136 18.5076 120.023 19.0909C120.909 19.6742 121.947 19.9659 123.136 19.9659C124.326 19.9659 125.364 19.6742 126.25 19.0909C127.136 18.5076 127.822 17.6515 128.307 16.5227C128.799 15.3939 129.045 14.0076 129.045 12.3636ZM153.111 8.25C152.952 7.69697 152.728 7.20833 152.44 6.78409C152.152 6.35227 151.8 5.98864 151.384 5.69318C150.974 5.39015 150.505 5.15909 149.974 5C149.452 4.84091 148.872 4.76136 148.236 4.76136C147.046 4.76136 146.001 5.05682 145.099 5.64773C144.205 6.23864 143.509 7.09848 143.009 8.22727C142.509 9.34848 142.259 10.7197 142.259 12.3409C142.259 13.9621 142.505 15.3409 142.997 16.4773C143.49 17.6136 144.187 18.4811 145.088 19.0795C145.99 19.6705 147.054 19.9659 148.281 19.9659C149.395 19.9659 150.346 19.7689 151.134 19.375C151.929 18.9735 152.535 18.4091 152.952 17.6818C153.376 16.9545 153.588 16.0947 153.588 15.1023L154.588 15.25H148.588V11.5455H158.327V14.4773C158.327 16.5227 157.895 18.2803 157.031 19.75C156.168 21.2121 154.978 22.3409 153.463 23.1364C151.948 23.9242 150.213 24.3182 148.259 24.3182C146.077 24.3182 144.16 23.8371 142.509 22.875C140.857 21.9053 139.569 20.5303 138.645 18.75C137.728 16.9621 137.27 14.8409 137.27 12.3864C137.27 10.5 137.543 8.81818 138.088 7.34091C138.641 5.85606 139.414 4.59848 140.406 3.56818C141.399 2.53788 142.554 1.75379 143.872 1.21591C145.19 0.678029 146.618 0.40909 148.156 0.40909C149.474 0.40909 150.702 0.602272 151.838 0.988636C152.974 1.36742 153.982 1.9053 154.861 2.60227C155.747 3.29924 156.471 4.12879 157.031 5.09091C157.592 6.04545 157.952 7.09848 158.111 8.25H153.111Z" fill="#EF4723"/>
</svg>
