<svg width="33" height="40" viewBox="0 0 33 40" fill="none" xmlns="http://www.w3.org/2000/svg">
<path d="M16.3632 40C17.3277 40 18.2526 39.6169 18.9345 38.9349C19.6165 38.253 19.9996 37.3281 19.9996 36.3636H12.7269C12.7269 37.3281 13.11 38.253 13.792 38.9349C14.4739 39.6169 15.3988 40 16.3632 40ZM1.81779 32.7273H30.9087C31.2682 32.7272 31.6197 32.6205 31.9186 32.4207C32.2176 32.2209 32.4505 31.937 32.5881 31.6048C32.7257 31.2726 32.7617 30.9071 32.6916 30.5545C32.6215 30.2018 32.4484 29.8779 32.1942 29.6236L29.0905 26.52V16.3636C29.0847 13.3064 27.9794 10.3532 25.9766 8.04326C23.9738 5.73335 21.207 4.22081 18.1814 3.78182V1.81818C18.1814 1.33597 17.9899 0.873508 17.6489 0.532533C17.3079 0.191558 16.8455 0 16.3632 0C15.881 0 15.4186 0.191558 15.0776 0.532533C14.7366 0.873508 14.5451 1.33597 14.5451 1.81818V3.78182C11.5195 4.22081 8.75268 5.73335 6.74987 8.04326C4.74705 10.3532 3.64182 13.3064 3.63598 16.3636V26.52L0.53234 29.6236C0.278141 29.8779 0.105038 30.2018 0.0349154 30.5545C-0.0352074 30.9071 0.000798093 31.2726 0.13838 31.6048C0.275962 31.937 0.508943 32.2209 0.80787 32.4207C1.1068 32.6205 1.45825 32.7272 1.81779 32.7273ZM6.73961 28.5582C7.08061 28.2173 7.27224 27.7549 7.27234 27.2727V16.3636C7.27234 13.9526 8.23013 11.6403 9.93501 9.93539C11.6399 8.23052 13.9522 7.27273 16.3632 7.27273C18.7743 7.27273 21.0866 8.23052 22.7915 9.93539C24.4964 11.6403 25.4542 13.9526 25.4542 16.3636V27.2727C25.4543 27.7549 25.6459 28.2173 25.9869 28.5582L26.5196 29.0909H6.20688L6.73961 28.5582Z" fill="black"/>
</svg>
